<?xml version="1.0" encoding="utf-8"?>
<!-- Generator: Adobe Illustrator 16.0.0, SVG Export Plug-In . SVG Version: 6.00 Build 0)  -->
<!DOCTYPE svg PUBLIC "-//W3C//DTD SVG 1.1//EN" "http://www.w3.org/Graphics/SVG/1.1/DTD/svg11.dtd">
<svg version="1.1" xmlns="http://www.w3.org/2000/svg" xmlns:xlink="http://www.w3.org/1999/xlink" x="0px" y="0px" width="149.9px"
	 height="97.4px" viewBox="0 0 149.9 97.4" enable-background="new 0 0 149.9 97.4" xml:space="preserve">
<g id="Layer_1">
</g>
<g id="Layer_3">
</g>
<g id="Layer_2">
	<path fill="#FFFFFF" d="M75,96.8c-4.5,0.7-28,3.3-48.5-11.8C3.8,68.3,1.2,44.3,0.1,42.7c-1.1-1.6,6-1.6,24.6,6.6
		c18.6,8.2,39.9,34.9,51.1,47.4c0,0-0.2,0-0.5,0.1"/>
	<path fill="#FFFFFF" d="M74.9,96.2c-5.7-3-36-19.7-46.8-38C16.1,38,20.2,23.7,18.8,19.4c-1.5-4.3,17.9,10.1,24.6,19
		c6.7,8.9,27.2,45.4,32.4,58.2c0,0-0.2-0.1-0.7-0.3"/>
	<path fill="#FFFFFF" d="M74.7,96.3c-3.2-1.2-13.3-6-26.5-23c-16-20.6-2.6-53.2-2.6-57.8c0-4.7,15.7,12.8,21.2,31.1
		c5.6,18.2,9.3,42.3,8.9,50.1c0,0-0.1,0-0.2,0"/>
	<path fill="#FFFFFF" d="M76,96c-0.1,0.2-0.2,0.4-0.2,0.6c0,0-17.5-54-9.7-74.1c7.8-20.2,7.8-19,9.7-22.1
		c1.9-3.1,9.7,13.2,11.2,18.2c1.5,5,10.4,19.3-10.9,77.3"/>
	<path fill="#FFFFFF" d="M76.2,96.2c-0.3,0.3-0.4,0.4-0.4,0.4s-0.4-32.2,7.1-47.4c7.5-15.1,16-28.7,22.7-32.2
		c6.7-3.5,6,39.2-2.6,49.7C95.3,76.2,79.3,93,76.3,96.1"/>
	<path fill="#FFFFFF" d="M76.2,96.5c21.1-8,43.6-40.3,49.1-47.2c5.6-7,11.9-29.9,6.7-29.5c-5.2,0.4-31.7,26-38,33.4
		c-6.3,7.4-18.1,43.4-18,43.4"/>
	<path fill="#FFFFFF" d="M76.5,96c4.4,0.7,27.4,3.3,47.4-11.8c22.2-16.7,24.8-40.8,25.9-42.3s-5.8-1.6-24.1,6.6
		c-18.2,8.2-39,34.9-49.9,47.4c0,0,0.2,0,0.4,0.1"/>
</g>
</svg>
