<?xml version="1.0" encoding="utf-8"?>
<!-- Generator: Adobe Illustrator 16.0.0, SVG Export Plug-In . SVG Version: 6.00 Build 0)  -->
<!DOCTYPE svg PUBLIC "-//W3C//DTD SVG 1.1//EN" "http://www.w3.org/Graphics/SVG/1.1/DTD/svg11.dtd">
<svg version="1.1" id="Layer_1" xmlns="http://www.w3.org/2000/svg" xmlns:xlink="http://www.w3.org/1999/xlink" x="0px" y="0px"
	 width="1024px" height="1024px" viewBox="0 0 1024 1024" enable-background="new 0 0 1024 1024" xml:space="preserve">
<path fill="#FFFFFF" stroke="#000000" stroke-miterlimit="10" d="M236.93,274.193c2.16-2.089,5.101-3.375,8.343-3.375h550.546
	c6.627,0,12,5.373,12,12v492.363c0,6.627-5.373,12-12,12H245.272c-6.627,0-12-5.373-12-12V282.818c0-2.865,1.005-5.496,2.681-7.56"
	/>
<path fill="#FFFFFF" stroke="#000000" stroke-miterlimit="10" d="M235.953,275.259c0.304-0.375,0.63-0.73,0.977-1.066"/>
<path fill="#FFFFFF" stroke="#000000" stroke-miterlimit="10" d="M305.257,309.022c13.56,0.563,24.379,11.734,24.379,25.432
	c0,14.058-11.396,25.455-25.455,25.455s-25.455-11.396-25.455-25.455S290.124,309,304.182,309"/>
<path fill="#FFFFFF" stroke="#000000" stroke-miterlimit="10" d="M304.182,309c0.36,0,0.719,0.007,1.075,0.022"/>
<path fill="#FFFFFF" stroke="#000000" stroke-miterlimit="10" d="M377.266,309.041c13.385,0.75,24.008,11.842,24.008,25.414
	c0,14.058-11.396,25.455-25.455,25.455c-14.058,0-25.455-11.396-25.455-25.455S361.76,309,375.818,309"/>
<path fill="#FFFFFF" stroke="#000000" stroke-miterlimit="10" d="M375.818,309c0.486,0,0.968,0.014,1.447,0.041"/>
<path fill="#FFFFFF" stroke="#000000" stroke-miterlimit="10" d="M446.255,309.026c13.518,0.609,24.291,11.76,24.291,25.428
	c0,14.058-11.396,25.455-25.455,25.455c-14.058,0-25.455-11.396-25.455-25.455S431.033,309,445.091,309"/>
<path fill="#FFFFFF" stroke="#000000" stroke-miterlimit="10" d="M445.091,309c0.39,0,0.778,0.009,1.165,0.026"/>
<path fill="#FFFFFF" stroke="#000000" stroke-miterlimit="10" d="M520.25,312"/>
<path fill="#FFFFFF" stroke="#000000" stroke-miterlimit="10" d="M520.25,312h238.568c3.627-3,9,2.373,9,9v26.909
	c0,6.627-5.373,12-12,12H512.545c-6.627,0-12-5.373-12-12V321c0-6.627,5.373-12,15-9h4.174"/>
<line fill="none" stroke="#000000" stroke-miterlimit="10" x1="233.272" y1="398" x2="807.818" y2="398"/>
</svg>
