<?xml version="1.0" encoding="utf-8"?>
<!-- Generator: Adobe Illustrator 16.0.0, SVG Export Plug-In . SVG Version: 6.00 Build 0)  -->
<!DOCTYPE svg PUBLIC "-//W3C//DTD SVG 1.1//EN" "http://www.w3.org/Graphics/SVG/1.1/DTD/svg11.dtd">
<svg version="1.1" xmlns="http://www.w3.org/2000/svg" xmlns:xlink="http://www.w3.org/1999/xlink" x="0px" y="0px" width="508.9px"
	 height="419.9px" viewBox="0 0 508.9 419.9" enable-background="new 0 0 508.9 419.9" xml:space="preserve">
<g id="Layer_1">
</g>
<g id="Layer_2">
	<line fill="none" x1="0" y1="58" x2="508.9" y2="58"/>
	<path fill="none" d="M6.8-36.3"/>
	<line fill="none" x1="0" y1="0" x2="0" y2="0"/>
	<line fill="none" x1="0" y1="0" x2="0" y2="0"/>
	<polyline fill="none" points="83.5,84.7 296,84.7 296,248.7 68,248.7 68,84.7 80.5,84.7 	"/>
	<polyline fill="none" points="346.5,84.7 431.3,84.7 431.3,248.7 324,248.7 324,84.7 343.5,84.7 	"/>
	<polyline fill="none" points="82,268.7 431.3,268.7 431.3,373.3 68,373.3 68,268.7 78.5,268.7 	"/>
	<path fill="none" d="M21,24.1c2.3,0.4,4,2.4,4,4.9c0,2.7-2.2,5-5,5c-2.7,0-5-2.2-5-5c0-2.7,2.2-5,5-5c0.2,0,0.3,0,0.5,0"/>
	<path fill="none" d="M20.6,24.1c0.2,0,0.3,0,0.4,0.1"/>
	<path fill="none" d="M34.3,24c2.6,0.2,4.6,2.3,4.6,4.9c0,2.7-2.2,5-5,5c-2.7,0-5-2.2-5-5c0-2.7,2.2-5,5-5"/>
	<path fill="none" d="M34,24c0.1,0,0.2,0,0.4,0"/>
	<path fill="none" d="M48.3,24c2.6,0.2,4.6,2.3,4.6,4.9c0,2.7-2.2,5-5,5c-2.7,0-5-2.2-5-5c0-2.7,2.2-5,5-5"/>
	<path fill="none" d="M48,24c0.1,0,0.2,0,0.4,0"/>
	<path fill="none" d="M70.7,16.5h359.7c0.6,0,1,0.4,1,1V39c0,0.6-0.4,1-1,1H69c-0.6,0-1-0.4-1-1V17.5c0-0.6,0.4-1,1-1h0.8"/>
	<line fill="none" x1="69.8" y1="16.5" x2="70.7" y2="16.5"/>
	<polyline fill="none" points="478.2,21.9 487.8,21.9 487.8,25 473.9,25 473.9,21.9 477.8,21.9 	"/>
	<polyline fill="none" points="480.5,28.1 487.8,28.1 487.8,31 473.9,31 473.9,28.1 480,28.1 	"/>
	<polyline fill="none" points="480.9,33.9 487.8,33.9 487.8,36.9 473.9,36.9 473.9,33.9 480.5,33.9 	"/>
	<polyline fill="none" points="15,0 508.9,0 508.9,419.9 0,419.9 0,0 8.7,0 	"/>
</g>
</svg>
