<?xml version="1.0" encoding="utf-8"?>
<!-- Generator: Adobe Illustrator 16.0.0, SVG Export Plug-In . SVG Version: 6.00 Build 0)  -->
<!DOCTYPE svg PUBLIC "-//W3C//DTD SVG 1.1//EN" "http://www.w3.org/Graphics/SVG/1.1/DTD/svg11.dtd">
<svg version="1.1" xmlns="http://www.w3.org/2000/svg" xmlns:xlink="http://www.w3.org/1999/xlink" x="0px" y="0px" width="508.9px"
	 height="419.9px" viewBox="0 0 508.9 419.9" enable-background="new 0 0 508.9 419.9" xml:space="preserve">
<g id="Layer_1">
	<line fill="none" x1="15" y1="66" x2="495" y2="66"/>
</g>
<g id="Layer_2">
	<path fill="none" d="M20,11.5h474c0.6,0,1,0.4,1,1v394.9c0,0.6-0.4,1-1,1H15c-0.6,0-1-0.4-1-1V12.5c0-0.6,0.4-1,1-1h4"/>
	<path fill="none" d="M112,92h181.7c0.6,0,1,0.4,1,1v152.7c0,0.6-0.4,1-1,1H78.3c-0.6,0-1-0.4-1-1V93c0-0.6,0.4-1,1-1h30.3"/>
	<path fill="none" d="M378.7,92h43c0.6,0,1,0.4,1,1v152.7c0,0.6-0.4,1-1,1H320.3c-0.6,0-1-0.4-1-1V93c0-0.6,0.4-1,1-1h55"/>
	<path fill="none" d="M83.3,265.3h338.3c0.6,0,1,0.4,1,1V363c0,0.6-0.4,1-1,1H78.3c-0.6,0-1-0.4-1-1v-96.7c0-0.6,0.4-1,1-1"/>
	<path fill="none" d="M86,26.7h335.7c0.6,0,1,0.4,1,1V49c0,0.6-0.4,1-1,1H78.3c-0.6,0-1-0.4-1-1V27.7c0-0.6,0.4-1,1-1h4.3"/>
	<path fill="none" d="M463.8,32.3h10.3c0.6,0,1,0.4,1,1v0.9c0,0.6-0.4,1-1,1h-11.4c-0.6,0-1-0.4-1-1v-0.9c0-0.6,0.4-1,1-1h0.8"/>
	<path fill="none" d="M464.1,38.1h10.1c0.6,0,1,0.4,1,1v0.8c0,0.6-0.4,1-1,1H463c-0.6,0-1-0.4-1-1v-0.8c0-0.6,0.4-1,1-1h0.7"/>
	<path fill="none" d="M464.4,43.8h9.7c0.6,0,1,0.4,1,1v0.7c0,0.6-0.4,1-1,1H463c-0.6,0-1-0.4-1-1v-0.7c0-0.6,0.4-1,1-1h1.1"/>
	<path fill="none" d="M34.1,34.9c1.8,0.5,3.2,2.1,3.2,4.1c0,2.3-1.9,4.3-4.3,4.3s-4.3-1.9-4.3-4.3s1.9-4.3,4.3-4.3
		c0.2,0,0.5,0,0.7,0.1"/>
	<path fill="none" d="M47.4,34.9c1.8,0.5,3.2,2.1,3.2,4.1c0,2.3-1.9,4.3-4.3,4.3S42,41.3,42,39s1.9-4.3,4.3-4.3c0.2,0,0.5,0,0.7,0.1
		"/>
	<path fill="none" d="M60.4,34.9c1.8,0.5,3.2,2.1,3.2,4.1c0,2.3-1.9,4.3-4.3,4.3s-4.3-1.9-4.3-4.3s1.9-4.3,4.3-4.3
		c0.2,0,0.5,0,0.7,0.1"/>
</g>
</svg>
